<svg width="180" height="179" viewBox="0 0 180 179" fill="none" xmlns="http://www.w3.org/2000/svg">
<circle cx="90" cy="89.5" r="89.5" fill="#A7C9AE"/>
<path d="M44.8207 102.232V110.138C44.8207 115.661 49.2978 120.138 54.8207 120.138H138.902C144.425 120.138 148.902 115.661 148.902 110.138V102.232M44.8207 102.232V60.1914C44.8207 54.6686 49.2978 50.1914 54.8207 50.1914H138.902C144.425 50.1914 148.902 54.6686 148.902 60.1914V102.232M44.8207 102.232C44.8207 102.232 57.6909 81.8075 63.5665 82.3671C69.442 82.9266 67.2037 94.398 80.6336 98.315C94.0634 102.232 99.3794 66.1393 110.851 63.901C122.322 61.6627 148.902 102.232 148.902 102.232" stroke="black" stroke-width="2"/>
<path d="M44.7865 56.6337L37.19 59.0423C32.3047 60.5913 29.3812 65.5829 30.42 70.6015L39.0992 112.533L40.6836 120.187C41.8047 125.603 47.1096 129.081 52.5235 127.948L89.7136 120.169" stroke="black" stroke-width="2"/>
<path d="M71.6804 50.1915L116.794 40.7806C121.685 39.7602 126.579 42.5069 128.256 47.2136L129.317 50.1915" stroke="black" stroke-width="2"/>
<path d="M81.8719 65.5799C81.8719 68.8907 79.1879 71.5746 75.8772 71.5746C72.5664 71.5746 69.8824 68.8907 69.8824 65.5799C69.8824 62.2691 72.5664 59.5852 75.8772 59.5852C79.1879 59.5852 81.8719 62.2691 81.8719 65.5799Z" stroke="black" stroke-width="2"/>
</svg>
