<svg width="388" height="461" viewBox="0 0 388 461" fill="none" xmlns="http://www.w3.org/2000/svg">
<path d="M89.9596 185.782C89.9596 185.782 86.8985 186.013 84.9596 185.782C74.814 184.574 66.4596 177.499 66.4596 167.282C66.4596 157.064 74.7423 148.782 84.9596 148.782C176.46 148.782 246.46 148.782 341.96 148.782C352.177 148.782 360.46 157.064 360.46 167.282C360.46 177.499 352.105 184.574 341.96 185.782C340.021 186.013 336.96 185.782 336.96 185.782M89.9596 185.782L107.83 450.455C108.184 455.705 112.546 459.782 117.807 459.782H312.492C317.803 459.782 322.187 455.631 322.477 450.328L336.96 185.782M89.9596 185.782H336.96M142.46 232.782L150.46 410.282M278.96 232.782L272.46 410.282M213.46 234.782V412.282" stroke="black" stroke-width="2" stroke-linecap="round"/>
<path d="M344.319 111.431L324.348 58.4654C323.771 56.9342 325.177 55.3956 326.754 55.8323L383 71.4082C385.215 72.0215 385.946 74.7955 384.32 76.4207L371.959 88.7816L385.838 102.66C387.01 103.832 387.01 105.731 385.838 106.903L379.081 113.66C377.909 114.832 376.01 114.832 374.838 113.66L361.459 100.282L349.247 112.494C347.706 114.035 345.088 113.47 344.319 111.431Z" stroke="black"/>
<path d="M313.459 75.7816L303.459 98.7816" stroke="black"/>
<path d="M303.459 61.7816L281.459 61.7816" stroke="black"/>
<path d="M322.459 35.7816L320.459 13.7816" stroke="black"/>
<path d="M348.459 36.7816L372.459 24.7816" stroke="black"/>
<path d="M305.459 40.7816L287.459 24.7816" stroke="black"/>
<path d="M160.025 70.7816V70.7816C159.717 70.2368 159.926 69.5452 160.484 69.2621L192.972 52.7893C194.033 52.2513 195.327 52.7531 195.747 53.866L198.46 61.0418M160.025 70.7816L184.504 114.091C185.036 115.032 186.221 115.38 187.178 114.876L211.53 102.035C212.364 101.596 212.778 100.633 212.523 99.7259L201.986 62.1592C201.693 61.1147 200.621 60.4941 199.569 60.7606L198.46 61.0418M160.025 70.7816L198.46 61.0418" stroke="black"/>
<path d="M48.1942 16.4685V16.4685C48.481 15.6766 49.3978 15.3162 50.1471 15.7009L98.551 40.5531C99.5584 41.0704 99.9358 42.3202 99.383 43.3086L93.797 53.2957M48.1942 16.4685L24.4774 81.9603C24.1307 82.9177 24.5586 83.9827 25.4712 84.4341L62.9273 102.959C63.8169 103.399 64.8946 103.12 65.459 102.304L96.3007 57.6972C96.8961 56.8361 96.7267 55.6615 95.9122 55.0038L93.797 53.2957M48.1942 16.4685L51.6524 19.2612M93.797 53.2957L90.9417 50.9898M49.0763 16.3911L96.0934 42.1454L90.9417 50.9898M90.9417 50.9898L88.0528 48.6569M88.0528 48.6569L91.1324 43.3697L51.6524 19.2612M88.0528 48.6569L51.6524 19.2612" stroke="black"/>
</svg>
