<svg width="179" height="179" viewBox="0 0 179 179" fill="none" xmlns="http://www.w3.org/2000/svg">
<circle cx="89.5" cy="89.5" r="89.5" fill="#A7C9AE"/>
<path d="M132.363 120H48.0217L42.7981 118.888L38.2116 116.787L34.899 114.068L31.7139 110.979L29.4207 107.272L27.8918 104.182L27 99.3626V94.6667L27.8918 90.5886L29.4207 86.5106L31.7139 82.6797L34.899 79.2195L38.2116 76.8715L42.7981 75.0179V74.0293V70.0748L43.5625 65.8732L44.8366 62.413L46.4928 58.8293L48.7861 55.6163L52.3534 51.5382L56.3029 48.6959L62.5457 45.8537L70.827 44H78.089L84.9688 45.8537L90.8294 48.6959L95.0337 51.5382L99.2381 55.6163L102.296 60.1886L107.265 58.8293H112.361L118.603 61.0537L123.317 65.8732L125.356 70.0748V74.0293H132.363L138.351 75.0179L145.104 78.4781L149.69 83.5447L152.493 89.3528L153.512 96.1496L152.493 101.834L149.69 108.878L145.104 114.068L138.351 118.023L132.363 120Z" stroke="black" stroke-width="2"/>
</svg>
