<svg width="164" height="164" viewBox="0 0 164 164" fill="none" xmlns="http://www.w3.org/2000/svg">
<circle cx="82" cy="82" r="82" fill="#FBFAF5"/>
<path d="M38.7151 66.5043V111C38.7151 116.523 43.1923 121 48.7151 121H114.344C119.867 121 124.344 116.523 124.344 111V66.5043M38.7151 66.5043L75.4809 33.1961C79.3437 29.6966 85.2465 29.7509 89.0442 33.3209L101.636 45.1582M38.7151 66.5043L29 75.2155M124.344 66.5043L134.059 75.2155M124.344 66.5043L115.711 58.3893M115.711 58.3893V40.5722C115.711 36.6855 112.56 33.5348 108.674 33.5348V33.5348C104.787 33.5348 101.636 36.6855 101.636 40.5722V45.1582M115.711 58.3893L101.636 45.1582" stroke="black" stroke-width="2"/>
<circle cx="93.8449" cy="86.3154" r="11.0642" stroke="black" stroke-width="2"/>
<path d="M77.2729 76.6228L76.4204 76.1853C73.9435 74.9142 71.1994 74.2512 68.4154 74.2512H67.5971C65.8752 74.2512 64.1696 74.5845 62.5743 75.2326L61.9551 75.4841C60.1211 76.2292 58.5238 77.4585 57.3339 79.0406V79.0406C55.9094 80.9347 55.139 83.2404 55.139 85.6104V86.1045C55.139 88.5959 56.0221 91.0066 57.6313 92.9085V92.9085C58.633 94.0924 59.8836 95.0404 61.294 95.685L62.1098 96.0579C64.0076 96.9253 66.0698 97.3742 68.1564 97.3742H68.5912C71.2585 97.3742 73.8863 96.7293 76.2505 95.4943L77.7594 94.7062" stroke="black" stroke-width="2" stroke-linecap="round"/>
<path d="M102.893 69.2246L102.958 69.1385C103.392 68.5598 104.073 68.2192 104.796 68.2192V68.2192C105.196 68.2192 105.589 68.3236 105.936 68.522L106.302 68.7311C106.856 69.0475 107.264 69.5678 107.439 70.181L107.459 70.2492C107.595 70.7255 107.569 71.2335 107.385 71.6935V71.6935C107.241 72.0521 107.007 72.3675 106.706 72.6088L106.269 72.9578C106.03 73.1494 105.771 73.3151 105.496 73.4523L104.401 74L103.244 74.4629C103.18 74.4885 103.127 74.5367 103.097 74.5983V74.5983C103.003 74.7853 103.139 75.0053 103.348 75.0053H104.15H105.658H107.166H108.171" stroke="black" stroke-width="2" stroke-linecap="round"/>
</svg>
