<svg width="164" height="164" viewBox="0 0 164 164" fill="none" xmlns="http://www.w3.org/2000/svg">
<circle cx="82" cy="82" r="82" fill="#FBFAF5"/>
<path d="M64 110.343V105.029M64 105.029V105.029C64 104.461 64.4605 104 65.0286 104H84.9714C85.5395 104 86 104.461 86 105.029V105.029M64 105.029L72.8249 109.292C74.199 109.956 75.801 109.956 77.1751 109.292L86 105.029M86 105.029V111C86 113.761 83.7614 116 81 116H67.0161" stroke="black" stroke-width="2" stroke-linecap="round"/>
<path d="M67.8571 114.018C67.8571 115.458 66.33 116.964 63.9821 116.964C61.6343 116.964 60.1071 115.458 60.1071 114.018C60.1071 112.578 61.6343 111.072 63.9821 111.072C66.33 111.072 67.8571 112.578 67.8571 114.018Z" stroke="black" stroke-width="2"/>
<path d="M96.8571 113.554C96.8571 114.956 95.2734 116.5 92.75 116.5C90.2266 116.5 88.6428 114.956 88.6428 113.554C88.6428 112.151 90.2266 110.607 92.75 110.607C95.2734 110.607 96.8571 112.151 96.8571 113.554Z" stroke="black" stroke-width="2"/>
<path d="M59.5714 115.088L46.6071 112.743L44.25 81.3188M44.25 81.3188V78.0356M44.25 81.3188V124" stroke="black" stroke-width="2" stroke-linecap="round"/>
<path d="M96.9286 115.179L119.714 112.857L123.857 81.75M123.857 81.75V78.5M123.857 81.75V124" stroke="black" stroke-width="2" stroke-linecap="round"/>
<circle cx="44.25" cy="62.25" r="15.25" stroke="black" stroke-width="2"/>
<circle cx="121.071" cy="62.25" r="15.25" stroke="black" stroke-width="2"/>
</svg>
