<svg width="179" height="179" viewBox="0 0 179 179" fill="none" xmlns="http://www.w3.org/2000/svg">
<circle cx="89.5" cy="89.5" r="89.5" fill="#A7C9AE"/>
<path d="M126.67 89.0131C126.845 88.2383 126.944 87.3207 127.305 86.6282C127.439 86.3699 127.578 85.8457 127.643 85.5574C127.724 85.1949 127.806 84.8323 127.888 84.4698C128.312 82.5854 128.759 80.7559 129.653 79.0558C129.937 78.5164 130.136 77.9161 130.453 77.3838C130.836 76.7406 131.291 76.137 131.752 75.5692C132.723 74.3725 133.715 73.3727 134.908 72.5164C135.932 71.7819 137.196 71.7781 138.317 71.721C140.265 71.6216 142.128 71.9256 144.002 72.3478C144.469 72.4529 144.938 72.5508 145.402 72.6632C145.929 72.7905 146.546 72.9148 147.037 73.1503C147.681 73.46 148.527 73.6659 149.069 74.1776C149.309 74.4035 149.593 74.5719 149.851 74.77C150.132 74.9861 150.388 75.2658 150.679 75.4579C151.187 75.7936 151.477 76.517 151.77 77.0802C152.245 77.9923 152.909 78.95 152.862 80.1174C152.806 81.5065 152.843 82.9247 152.535 84.292C152.247 85.5691 152.072 87.02 151.597 88.2313C151.42 88.6812 151.322 89.1752 151.199 89.6457C150.91 90.7585 150.49 91.8362 150.124 92.921C149.706 94.1606 149.357 95.4151 148.879 96.6338C148.459 97.7031 148.064 98.6888 147.81 99.8171C147.627 100.626 147.336 101.39 147.146 102.191C146.887 103.278 146.62 104.438 146.258 105.492C145.518 107.653 144.719 109.783 144.04 111.963C143.304 114.326 142.616 116.698 141.861 119.052C141.608 119.843 141.261 120.585 141.011 121.375C140.83 121.95 140.51 122.47 140.374 123.071C140.194 123.874 139.845 124.744 139.561 125.518C139.38 126.012 139.159 126.496 138.974 126.995C138.609 127.977 138.244 129.011 137.969 130.023C137.855 130.44 137.608 130.858 137.489 131.292C137.371 131.718 137.184 132.131 137.075 132.558C136.976 132.939 136.839 133.314 136.751 133.708C136.651 134.149 136.478 133.893 136.268 133.846C135.86 133.754 135.445 133.507 135.01 133.409C134.793 133.361 134.577 133.312 134.361 133.263C134.115 133.208 133.904 133.007 133.659 132.952C133.301 132.871 133.562 132.381 133.64 132.034C133.684 131.839 133.83 131.288 133.992 131.192C134.153 131.096 134.243 130.643 134.321 130.463C134.433 130.203 134.581 129.969 134.686 129.7C134.736 129.575 134.87 129.296 134.942 129.188C135.053 129.019 135.099 128.829 135.206 128.67C135.424 128.342 135.561 127.895 135.694 127.522C135.813 127.186 135.952 126.932 136.035 126.567C136.094 126.302 136.248 125.983 136.35 125.724C136.425 125.535 136.449 125.302 136.494 125.103C136.548 124.862 136.684 124.674 136.767 124.446C136.908 124.061 137.033 123.646 137.163 123.261C137.427 122.483 137.693 121.705 137.949 120.919C138.219 120.092 138.319 119.112 138.697 118.334C139.029 117.65 139.074 116.691 139.484 116.065C139.631 115.841 139.643 115.448 139.774 115.195C139.974 114.807 140.213 114.33 140.31 113.897C140.383 113.574 140.566 113.288 140.646 112.979C140.734 112.644 140.752 112.196 140.906 111.89C141.336 111.037 141.519 109.963 141.732 109.018C142.093 107.419 142.517 105.928 143.034 104.404C143.34 103.502 143.729 102.63 144.027 101.718C144.299 100.883 144.59 100.016 144.908 99.2059C145.244 98.3507 145.389 97.3734 145.593 96.4712C145.661 96.1694 145.806 95.8007 145.844 95.5167C145.858 95.4115 145.505 94.9889 145.643 94.9744C145.719 94.9664 145.841 95.0552 145.883 95.1178C146.075 95.4041 146.909 93.2176 147.088 92.9251C147.294 92.5859 147.313 92.0554 147.517 91.7218C147.712 91.402 147.801 90.9711 147.885 90.5982C147.951 90.3019 148.103 89.9767 148.214 89.6952C148.414 89.1842 148.48 88.5309 148.601 87.9938C148.858 86.8493 149.055 85.6906 149.31 84.5595C149.668 82.9703 149.514 81.2102 149.187 79.6759C149.051 79.0408 148.557 78.5298 148.082 78.2546C147.721 78.0452 147.397 77.7328 147.02 77.5225C146.555 77.2628 146.078 77.083 145.606 76.8555C144.557 76.3499 143.428 75.8443 142.31 75.5605C141.47 75.3473 140.461 74.8358 139.563 75.0775C139.21 75.1724 138.773 75.1419 138.439 75.3341C138.224 75.4581 137.8 75.6133 137.563 75.6381C137.227 75.6734 136.794 75.9933 136.477 76.1581C136.067 76.3718 135.683 76.6615 135.276 76.8859C134.6 77.2595 134.125 77.95 133.586 78.5273C132.965 79.1928 132.623 79.9808 132.176 80.7714C131.967 81.1423 131.835 81.5892 131.631 81.9655C131.461 82.2788 131.363 82.7096 131.177 82.9933C130.815 83.5446 130.678 84.4094 130.531 85.0653C130.388 85.7009 130.21 86.3362 130.043 86.9436C129.944 87.3021 129.83 87.6539 129.739 88.0052C129.68 88.2359 129.556 88.6777 129.429 88.8701C129.356 88.9816 129.293 89.1236 129.263 89.2575C129.221 89.4451 129.084 89.5504 129.035 89.6988C128.954 89.9415 128.765 90.1114 128.628 90.2953C128.245 90.8064 127.868 90.9652 127.293 90.8358C127.035 90.7777 126.903 90.7348 126.708 90.5679C126.613 90.4874 126.407 90.2259 126.441 90.032C126.542 89.4506 126.708 88.963 126.679 88.4032" stroke="black" stroke-width="2" stroke-linecap="round"/>
<path d="M134.652 72.2492V60.2654M134.652 77.3271V117.341M40 60.2654V60.2654C40 57.9097 41.9097 56 44.2654 56H130.386C132.742 56 134.652 57.9097 134.652 60.2654V60.2654M40 60.2654L80.9759 86.6325M40 60.2654V117.341M134.652 60.2654L92.6069 86.6325M134.652 117.341V117.341C134.652 119.697 132.742 121.606 130.386 121.606H44.2654C41.9097 121.606 40 119.697 40 117.341V117.341M134.652 117.341L92.6069 86.6325M92.6069 86.6325L92.0985 86.9514C88.8139 89.0112 84.6346 88.9868 81.3743 86.8889L80.9759 86.6325M80.9759 86.6325L40 117.341" stroke="black" stroke-width="2" stroke-linecap="round"/>
</svg>
