<svg width="164" height="164" viewBox="0 0 164 164" fill="none" xmlns="http://www.w3.org/2000/svg">
<circle cx="82" cy="82" r="82" fill="#FBFAF5"/>
<path d="M50.5166 120.122V128C50.5166 133.523 54.9938 138 60.5166 138H101.723C107.246 138 111.723 133.523 111.723 128V120.122M50.5166 120.122H111.723M50.5166 120.122V33.4649M111.723 120.122V33.4649M50.5166 33.4649V33.4649C50.5166 28.2376 54.7542 24 59.9815 24H102.258C107.486 24 111.723 28.2376 111.723 33.4649V33.4649M50.5166 33.4649H111.723" stroke="black" stroke-width="2" stroke-linecap="round"/>
<path d="M84.4317 129.166C84.4317 130.937 82.9961 132.373 81.2251 132.373C79.4541 132.373 78.0184 130.937 78.0184 129.166C78.0184 127.395 79.4541 125.959 81.2251 125.959C82.9961 125.959 84.4317 127.395 84.4317 129.166Z" stroke="black" stroke-width="2"/>
<path d="M84.5904 56.3911H77.4391V66.9077H67.3432V74.2693H77.4391V85.2066H84.5904V74.2693H95.107V66.9077H84.5904V56.3911Z" stroke="black" stroke-width="2" stroke-linecap="round"/>
</svg>
