<svg width="512" height="416" viewBox="0 0 512 416" fill="none" xmlns="http://www.w3.org/2000/svg">
<path d="M96.5 415.5C96.5 415.5 122.835 161.115 233 168C339.702 174.668 350 415.5 350 415.5" stroke="black" stroke-width="2"/>
<path d="M300 187C300 187 429.5 265.369 437.5 259C466.489 235.922 458 168 466 168.5C474 169 511 187 511 187" stroke="black" stroke-width="2"/>
<path d="M157.5 192C157.5 192 63.5 260.5 50 250.5C36.5 240.5 40.5 178.5 31.5 181C22.5 183.5 1 192 1 192" stroke="black" stroke-width="2"/>
<circle cx="234" cy="86" r="65" stroke="black" stroke-width="2"/>
<path d="M351 28.016C351 28.016 396 -25.8308 419.5 18.5161C443 62.8629 387.405 59.0785 383 79.516C380.367 91.7323 383 96.5161 383 96.5161" stroke="black" stroke-width="2"/>
<path d="M385.565 105.371C384.996 105.371 384.428 105.371 383.859 105.371C383.47 105.371 382.336 105.18 382.029 105.436C381.682 105.725 381.066 105.747 380.709 106.085C380.279 106.493 379.845 106.99 379.367 107.34C377.008 109.064 375.721 111.958 375.721 114.821C375.721 116.009 375.704 117.038 376.173 118.11C376.462 118.77 376.773 119.549 377.296 120.072C377.722 120.498 378.324 120.73 378.74 121.122C379.634 121.967 381.411 121.647 382.524 121.647C384.296 121.647 386.073 121.328 387.665 120.531C389.035 119.847 390.558 119.34 391.18 117.811C391.827 116.224 392.522 114.389 392.522 112.656C392.522 111.502 392.798 109.604 391.997 108.652C391.646 108.236 391.455 107.698 391.078 107.274C390.73 106.883 390.266 106.674 389.824 106.421C389.086 105.999 388.007 106.158 387.17 106.158C385.899 106.158 384.931 106.44 383.793 106.946C381.861 107.805 380.084 109.971 379.921 112.094C379.854 112.967 379.79 113.853 379.79 114.763C379.79 115.596 379.544 116.734 380.154 117.345C380.664 117.854 381.149 118.313 381.817 118.504C382.491 118.697 383.281 119.022 383.99 119.022C384.987 119.022 386.256 119.076 387.075 118.438C387.727 117.931 388.58 117.455 389.007 116.717C389.62 115.658 389.766 114.552 389.766 113.305C389.766 112.518 389.976 110.943 389.182 110.49C388.928 110.345 388.783 109.951 388.453 109.804C388.01 109.608 387.751 109.598 387.272 109.571C386.918 109.551 386.503 109.393 386.156 109.316C385.731 109.221 385.348 109.44 384.975 109.44C384.313 109.44 383.31 110.597 382.867 111.015C382.156 111.686 382.021 112.836 382.021 113.764C382.021 114.277 382.37 115.964 383.071 116.003C383.843 116.046 384.74 116.354 385.441 115.945C386.679 115.223 387.921 113.177 386.222 112.328" stroke="black" stroke-width="2" stroke-linecap="round"/>
</svg>
