<svg width="164" height="164" viewBox="0 0 164 164" fill="none" xmlns="http://www.w3.org/2000/svg">
<circle cx="82" cy="82" r="82" fill="#FBFAF5"/>
<path d="M43 114.923V67.2307C43 61.7079 47.4772 57.2307 53 57.2307H110C115.523 57.2307 120 61.7079 120 67.2307V114.923C120 120.446 115.523 124.923 110 124.923H53C47.4772 124.923 43 120.446 43 114.923Z" stroke="black" stroke-width="2" stroke-linecap="round"/>
<path d="M55.6923 57.2308C55.6923 57.2308 55.6923 20 83.8974 20C108.154 20 108.154 57.2308 108.154 57.2308" stroke="black" stroke-width="2" stroke-linecap="round"/>
<path d="M63.3077 57.231C63.3077 57.231 63.3077 25.9233 83.3242 25.9233C100.538 25.9233 100.538 57.231 100.538 57.231" stroke="black" stroke-width="2" stroke-linecap="round"/>
<path d="M76.4231 88.9617C76.7362 89.3086 77.2693 89.8079 77.2693 89.8079L75.1539 102.5H87.4231L84.4616 89.8079L85.5287 89.0075C85.9434 88.6964 86.3118 88.3281 86.6228 87.9134C87.1486 87.2123 87.4983 86.395 87.6424 85.5305L87.7662 84.7879C87.8194 84.4684 87.8462 84.1451 87.8462 83.8212C87.8462 82.7554 87.5566 81.7097 87.0082 80.7958L86.9675 80.7279C86.7081 80.2956 86.3921 79.8922 86.0356 79.5357C85.5576 79.0577 84.9917 78.6498 84.3871 78.3475C83.8792 78.0936 83.3333 77.9052 82.7766 77.7939L82.2398 77.6865C81.7478 77.5881 81.2474 77.5386 80.7456 77.5386H80.5324C80.0511 77.5386 79.5716 77.5976 79.1047 77.7143L79.057 77.7263C78.4339 77.882 77.8423 78.1438 77.3079 78.5C77.0008 78.7047 76.7148 78.9392 76.4539 79.2001L75.577 80.077L75.3066 80.4127C74.9266 80.8843 74.6455 81.4276 74.4798 82.0102C74.3657 82.4118 74.3077 82.8273 74.3077 83.2448V83.5142C74.3077 84.0413 74.3724 84.5664 74.5002 85.0778L74.7308 86.0001C75.0095 86.8361 75.3899 87.6496 75.9238 88.3506C76.0897 88.5683 76.2632 88.7845 76.4231 88.9617Z" stroke="black" stroke-width="2" stroke-linecap="round"/>
</svg>
