<svg width="34" height="35" viewBox="0 0 34 35" fill="none" xmlns="http://www.w3.org/2000/svg">
<g clip-path="url(#clip0_110_9)">
<path d="M24.0834 30.625V27.7083C24.0834 26.1612 23.4863 24.6775 22.4236 23.5835C21.3609 22.4896 19.9196 21.875 18.4167 21.875H7.08335C5.58046 21.875 4.13912 22.4896 3.07642 23.5835C2.01371 24.6775 1.41669 26.1612 1.41669 27.7083V30.625" stroke="#6AA28B" stroke-width="4" stroke-linecap="round" stroke-linejoin="round"/>
<path d="M12.75 16.0417C15.8796 16.0417 18.4166 13.43 18.4166 10.2083C18.4166 6.98667 15.8796 4.375 12.75 4.375C9.62037 4.375 7.08331 6.98667 7.08331 10.2083C7.08331 13.43 9.62037 16.0417 12.75 16.0417Z" stroke="#6AA28B" stroke-width="4" stroke-linecap="round" stroke-linejoin="round"/>
<path d="M32.5833 30.625V27.7083C32.5824 26.4158 32.1645 25.1603 31.3952 24.1388C30.626 23.1173 29.549 22.3877 28.3333 22.0646" stroke="#6AA28B" stroke-width="4" stroke-linecap="round" stroke-linejoin="round"/>
<path d="M22.6667 4.56458C23.8856 4.88585 24.966 5.6156 25.7375 6.63878C26.509 7.66196 26.9278 8.92037 26.9278 10.2156C26.9278 11.5109 26.509 12.7693 25.7375 13.7925C24.966 14.8156 23.8856 15.5454 22.6667 15.8667" stroke="#6AA28B" stroke-width="4" stroke-linecap="round" stroke-linejoin="round"/>
</g>
<defs>
<clipPath id="clip0_110_9">
<rect width="34" height="35" fill="white"/>
</clipPath>
</defs>
</svg>
